<svg width="39" height="46" viewBox="0 0 39 46" fill="none" xmlns="http://www.w3.org/2000/svg">
<path fill-rule="evenodd" clip-rule="evenodd" d="M16.8186 0.669874C18.3656 -0.22329 20.2716 -0.223292 21.8186 0.669872L36.1372 8.93673C37.6842 9.82989 38.6372 11.4805 38.6372 13.2669V29.8006C38.6372 31.5869 37.6842 33.2375 36.1372 34.1307L24.9667 40.58V36.6287V31.6888L28.3177 29.7542C29.8647 28.861 30.8177 27.2104 30.8177 25.424V17.756C30.8177 15.9697 29.8647 14.319 28.3177 13.4259L21.6769 9.59187C20.1299 8.69871 18.224 8.69871 16.6769 9.59187L10.0362 13.4259C8.48924 14.319 7.53624 15.9697 7.53624 17.756V25.424C7.53624 27.2104 8.48924 28.861 10.0362 29.7542L15.3991 32.8504V41.578L2.5 34.1307C0.952998 33.2375 0 31.5869 0 29.8006V13.2669C0 11.4805 0.952994 9.8299 2.5 8.93673L16.8186 0.669874ZM17.9948 42.8891C18.8609 43.1269 19.7763 43.1269 20.6425 42.8891H17.9948Z" fill="url(#paint0_linear_612_3297)"/>
<path d="M16.1684 17.9881V16.9133C16.1684 15.8671 17.0165 15.019 18.0627 15.019H20.0517C21.1562 15.019 22.0517 15.9144 22.0517 17.019V21.4497C22.0517 23.2526 24.2497 24.1351 25.4964 22.8327L25.9967 22.3101C26.8852 21.3819 28.4059 21.5203 29.1122 22.5937L29.1968 22.7224C29.6987 23.4851 29.6203 24.4908 29.0064 25.1666L22.5713 32.25C22.2369 32.6181 22.0517 33.0975 22.0517 33.5948V39.4085V43.6689C22.0517 44.7735 21.1562 45.6689 20.0517 45.6689H18.1684C17.0638 45.6689 16.1684 44.7735 16.1684 43.6689V26.2132C16.1684 25.5719 15.8608 24.9694 15.3414 24.5933L12.3596 22.4342C11.492 21.8059 11.3269 20.5793 11.9976 19.744L12.3143 19.3495C12.7477 18.8097 13.5233 18.694 14.0953 19.0839C14.9757 19.6839 16.1684 19.0534 16.1684 17.9881Z" fill="url(#paint1_linear_612_3297)"/>
<defs>
<linearGradient id="paint0_linear_612_3297" x1="38.8696" y1="42.1061" x2="5.12448" y2="-11.2613" gradientUnits="userSpaceOnUse">
<stop offset="0.286458" stop-color="#11366F"/>
<stop offset="1" stop-color="#36D462" stop-opacity="0.6"/>
</linearGradient>
<linearGradient id="paint1_linear_612_3297" x1="30.0496" y1="47.7557" x2="14.7642" y2="8.50532" gradientUnits="userSpaceOnUse">
<stop stop-color="#11366F"/>
<stop offset="0.585551" stop-color="#30AB8E"/>
</linearGradient>
</defs>
</svg>
